<svg width="99" height="28" viewBox="0 0 99 28" fill="none" xmlns="http://www.w3.org/2000/svg">
<path d="M20.8124 12.1751C20.4334 12.5564 20.1432 13.0166 19.9624 13.5228C19.7816 14.0291 19.7147 14.569 19.7664 15.1041L19.7484 15.0861C19.8016 15.716 19.7166 16.3498 19.4995 16.9435C19.2824 17.5371 18.9384 18.0762 18.4915 18.5232C18.0445 18.9701 17.5054 19.3142 16.9117 19.5312C16.3181 19.7483 15.6842 19.8333 15.0544 19.7801L15.0724 19.7981C14.319 19.728 13.5623 19.8919 12.9054 20.2676C12.2486 20.6433 11.7236 21.2124 11.4021 21.8974C11.0806 22.5824 10.9781 23.3498 11.1087 24.0952C11.2394 24.8405 11.5967 25.5274 12.132 26.0622C12.6673 26.597 13.3545 26.9537 14.0999 27.0836C14.8454 27.2136 15.6127 27.1104 16.2974 26.7883C16.9821 26.4661 17.5507 25.9407 17.9258 25.2835C18.3009 24.6263 18.4642 23.8695 18.3934 23.1161L18.4124 23.1341C18.3592 22.5043 18.4441 21.8704 18.6612 21.2767C18.8783 20.6831 19.2224 20.144 19.6693 19.697C20.1163 19.2501 20.6554 18.906 21.249 18.689C21.8427 18.4719 22.4765 18.3869 23.1064 18.4401L23.0874 18.4221C23.7028 18.4774 24.3223 18.3765 24.8884 18.1287C25.4544 17.8809 25.9488 17.4942 26.3256 17.0045C26.7024 16.5148 26.9496 15.9378 27.044 15.3272C27.1385 14.7165 27.0773 14.0919 26.8661 13.5111C26.6549 12.9304 26.3005 12.4124 25.8358 12.0051C25.3711 11.5978 24.8111 11.3144 24.2077 11.1812C23.6043 11.048 22.977 11.0692 22.384 11.2429C21.791 11.4167 21.2515 11.7373 20.8154 12.1751H20.8124Z" fill="url(#paint0_linear_7_2)"/>
<path d="M13.4353 17.4401L13.4163 17.4221C13.9516 17.476 14.4922 17.4103 14.9991 17.2297C15.5059 17.0491 15.9663 16.7582 16.3469 16.3779C16.7274 15.9976 17.0188 15.5374 17.1997 15.0307C17.3807 14.524 17.4468 13.9835 17.3933 13.4481L17.4123 13.4661C17.3591 12.8362 17.4441 12.2024 17.6611 11.6087C17.8782 11.0151 18.2223 10.476 18.6692 10.029C19.1162 9.5821 19.6553 9.238 20.2489 9.021C20.8426 8.80383 21.4764 8.7189 22.1063 8.77207L22.0873 8.75407C22.8408 8.82487 23.5977 8.66143 24.2549 8.28617C24.9122 7.91091 25.4376 7.34204 25.7596 6.65717C26.0816 5.97231 26.1845 5.20478 26.0543 4.45927C25.9241 3.71376 25.5671 3.02658 25.0319 2.49144C24.4968 1.95631 23.8096 1.59927 23.0641 1.46905C22.3186 1.33882 21.5511 1.44173 20.8662 1.76375C20.1813 2.08576 19.6125 2.61121 19.2372 3.26842C18.8619 3.92562 18.6985 4.68259 18.7693 5.43607L18.7513 5.41707C18.8046 6.04696 18.7198 6.6809 18.5028 7.27462C18.2858 7.86834 17.9417 8.40753 17.4948 8.85457C17.0478 9.3015 16.5086 9.6456 15.9149 9.8626C15.3211 10.0796 14.6872 10.1644 14.0573 10.1111L14.0753 10.1301C13.54 10.0762 12.9993 10.1419 12.4925 10.3225C11.9857 10.503 11.5253 10.794 11.1447 11.1743C10.7641 11.5546 10.4728 12.0148 10.2918 12.5215C10.1109 13.0282 10.0448 13.5687 10.0983 14.1041L10.0803 14.0861C10.1333 14.7159 10.0482 15.3497 9.83114 15.9433C9.61394 16.5368 9.26994 17.0759 8.82304 17.5228C8.3761 17.9697 7.83706 18.3137 7.2435 18.5309C6.64994 18.748 6.01615 18.8331 5.38634 18.7801L5.40434 18.7981C4.65086 18.7273 3.89389 18.8907 3.23668 19.266C2.57948 19.6413 2.05403 20.2101 1.73202 20.895C1.41 21.5799 1.30708 22.3474 1.43731 23.0929C1.56754 23.8384 1.92458 24.5256 2.45971 25.0607C2.99485 25.5959 3.68203 25.9529 4.42754 26.0831C5.17305 26.2133 5.94058 26.1104 6.62545 25.7884C7.31031 25.4664 7.87918 24.941 8.25444 24.2838C8.62974 23.6265 8.79314 22.8696 8.72234 22.1161L8.74134 22.1341C8.68814 21.5042 8.77314 20.8704 8.99024 20.2767C9.20724 19.6831 9.55134 19.144 9.99824 18.697C10.4452 18.2501 10.9843 17.906 11.5779 17.689C12.1716 17.4719 12.8054 17.3869 13.4353 17.4401Z" fill="url(#paint1_linear_7_2)"/>
<path d="M6.73328 15.433C7.1123 15.0518 7.40248 14.5916 7.58312 14.0853C7.76376 13.579 7.8304 13.039 7.77828 12.504L7.79727 12.522C7.74407 11.892 7.82903 11.2579 8.04624 10.6641C8.26345 10.0703 8.60768 9.5311 9.05488 9.0841C9.50208 8.63714 10.0414 8.29315 10.6353 8.0762C11.2292 7.85924 11.8633 7.77454 12.4933 7.82802L12.4743 7.81002C13.2275 7.88059 13.9842 7.7171 14.6411 7.34186C15.298 6.96663 15.8231 6.3979 16.145 5.71325C16.4668 5.02859 16.5696 4.26134 16.4394 3.51611C16.3092 2.77088 15.9522 2.08396 15.4173 1.54902C14.8824 1.01408 14.1954 0.657156 13.4502 0.526936C12.705 0.396706 11.9377 0.499526 11.2531 0.821346C10.5684 1.14317 9.99968 1.66834 9.62448 2.32524C9.24918 2.98214 9.08568 3.7388 9.15628 4.49202L9.13828 4.47402C9.19148 5.10387 9.10648 5.73774 8.88938 6.33138C8.67228 6.92502 8.3283 7.46413 7.88134 7.91109C7.43439 8.35805 6.89527 8.70208 6.30163 8.91912C5.70799 9.1362 5.07413 9.2212 4.44428 9.168L4.46228 9.186C3.84685 9.1308 3.22744 9.2319 2.66146 9.4798C2.09548 9.7277 1.60123 10.1145 1.22452 10.6043C0.847808 11.094 0.600828 11.671 0.506448 12.2816C0.412078 12.8923 0.473368 13.5169 0.684638 14.0975C0.895908 14.6782 1.25034 15.1961 1.71507 15.6033C2.1798 16.0106 2.7398 16.2939 3.34318 16.4271C3.94655 16.5602 4.57378 16.5389 5.16675 16.3652C5.75971 16.1914 6.29921 15.8708 6.73527 15.433H6.73328Z" fill="url(#paint2_linear_7_2)"/>
<path d="M34.76 17.38V22H33V8.7H36.74C37.3 8.7 37.84 8.81333 38.36 9.04C38.88 9.25333 39.34 9.56 39.74 9.96C40.14 10.3733 40.4467 10.8467 40.66 11.38C40.8867 11.9 41 12.4533 41 13.04C41 13.6267 40.8867 14.1867 40.66 14.72C40.4467 15.24 40.14 15.7 39.74 16.1C39.34 16.5 38.88 16.8133 38.36 17.04C37.84 17.2667 37.3 17.38 36.74 17.38H34.76ZM34.76 10.52V15.6H36.74C37.4333 15.6 38.02 15.3467 38.5 14.84C38.9933 14.3467 39.24 13.7467 39.24 13.04C39.24 12.3467 38.9933 11.7533 38.5 11.26C38.0067 10.7667 37.42 10.52 36.74 10.52H34.76ZM50.1039 22V20.48C49.6772 20.9733 49.1839 21.3667 48.6239 21.66C48.0639 21.9533 47.4706 22.1 46.8439 22.1C46.1506 22.1 45.4972 21.9733 44.8839 21.72C44.2839 21.4667 43.7506 21.1067 43.2839 20.64C42.8172 20.1867 42.4506 19.6533 42.1839 19.04C41.9306 18.4133 41.8039 17.76 41.8039 17.08C41.8039 16.4 41.9306 15.7533 42.1839 15.14C42.4506 14.5133 42.8172 13.9667 43.2839 13.5C43.7506 13.0333 44.2839 12.6733 44.8839 12.42C45.4972 12.1667 46.1506 12.04 46.8439 12.04C47.4839 12.04 48.0839 12.1733 48.6439 12.44C49.2172 12.7067 49.7039 13.08 50.1039 13.56V12.24H51.9039V22H50.1039ZM46.8439 13.82C46.4039 13.82 45.9772 13.9067 45.5639 14.08C45.1639 14.24 44.8172 14.4667 44.5239 14.76C44.2306 15.0533 43.9972 15.4067 43.8239 15.82C43.6639 16.22 43.5839 16.64 43.5839 17.08C43.5839 17.52 43.6639 17.94 43.8239 18.34C43.9972 18.74 44.2306 19.0867 44.5239 19.38C44.8172 19.6733 45.1639 19.9067 45.5639 20.08C45.9772 20.24 46.4039 20.32 46.8439 20.32C47.2839 20.32 47.7039 20.24 48.1039 20.08C48.5039 19.9067 48.8506 19.6733 49.1439 19.38C49.4372 19.0867 49.6639 18.74 49.8239 18.34C49.9972 17.94 50.0839 17.52 50.0839 17.08C50.0839 16.64 49.9972 16.22 49.8239 15.82C49.6639 15.4067 49.4372 15.0533 49.1439 14.76C48.8506 14.4667 48.5039 14.24 48.1039 14.08C47.7039 13.9067 47.2839 13.82 46.8439 13.82ZM56.8984 13.8V22H55.1984V13.8H53.6984V12H55.1984V8.7H56.8984V12H58.3984V13.8H56.8984ZM66.387 22V15.86C66.387 15.2333 66.167 14.7 65.727 14.26C65.527 14.06 65.287 13.9 65.007 13.78C64.7404 13.66 64.467 13.6 64.187 13.6C63.587 13.6 63.067 13.82 62.627 14.26C62.187 14.7 61.967 15.2333 61.967 15.86V22H60.207V8.66H61.967V12.7C62.607 12.1 63.347 11.8 64.187 11.8C64.7204 11.8 65.227 11.9067 65.707 12.12C66.187 12.32 66.6137 12.6067 66.987 12.98C67.347 13.3533 67.627 13.7933 67.827 14.3C68.0404 14.7933 68.147 15.3133 68.147 15.86V22H66.387ZM75.1884 14.98C75.1484 14.74 75.0618 14.5133 74.9284 14.3C74.6751 13.86 74.1751 13.64 73.4284 13.64C73.0284 13.64 72.7218 13.6867 72.5084 13.78C72.2284 13.8867 72.0151 14.04 71.8684 14.24C71.7351 14.44 71.6684 14.66 71.6684 14.9C71.6684 15.1933 71.7751 15.46 71.9884 15.7C72.2151 15.9533 72.5818 16.0867 73.0884 16.1C73.9818 16.14 74.7018 16.2467 75.2484 16.42C75.8084 16.5933 76.2351 16.8933 76.5284 17.32C76.8351 17.7467 76.9884 18.3467 76.9884 19.12C76.9884 19.9067 76.6884 20.5867 76.0884 21.16C75.7951 21.44 75.4484 21.6667 75.0484 21.84C74.6618 22.0133 74.2551 22.1 73.8284 22.1H73.5284C72.4618 22.1 71.6018 21.7933 70.9484 21.18C70.4151 20.6867 70.0818 19.9933 69.9484 19.1H71.7284C71.7951 19.42 71.9284 19.68 72.1284 19.88C72.4351 20.1733 72.8618 20.32 73.4084 20.32C73.5551 20.32 73.6618 20.3133 73.7284 20.3C74.1951 20.2733 74.5618 20.1467 74.8284 19.92C75.0951 19.68 75.2284 19.3867 75.2284 19.04C75.2284 18.56 75.0818 18.2467 74.7884 18.1C74.4951 17.9533 73.9284 17.88 73.0884 17.88C72.0351 17.88 71.2284 17.5467 70.6684 16.88C70.2151 16.3733 69.9884 15.7333 69.9884 14.96C69.9884 14.7867 69.9951 14.6533 70.0084 14.56C70.1151 13.6933 70.4684 13.0333 71.0684 12.58C71.6818 12.1133 72.4884 11.88 73.4884 11.88C74.2218 11.88 74.8618 12.04 75.4084 12.36C75.7951 12.6 76.1284 12.9333 76.4084 13.36C76.6751 13.7867 76.8484 14.32 76.9284 14.96L76.8884 14.98H75.1884Z" fill="white"/>
<defs>
<linearGradient id="paint0_linear_7_2" x1="19.0703" y1="11.0948" x2="19.0703" y2="27.1383" gradientUnits="userSpaceOnUse">
<stop stop-color="white"/>
<stop offset="1" stop-color="white"/>
</linearGradient>
<linearGradient id="paint1_linear_7_2" x1="13.7458" y1="1.41418" x2="13.7458" y2="26.1379" gradientUnits="userSpaceOnUse">
<stop stop-color="white"/>
<stop offset="1" stop-color="white"/>
</linearGradient>
<linearGradient id="paint2_linear_7_2" x1="8.47882" y1="0.472046" x2="8.47882" y2="16.5133" gradientUnits="userSpaceOnUse">
<stop stop-color="white"/>
<stop offset="1" stop-color="white"/>
</linearGradient>
</defs>
</svg>
